<?xml version="1.0" encoding="UTF-8" standalone="no"?>
<svg width="226px" height="327px" viewBox="0 0 226 327" version="1.1" xmlns="http://www.w3.org/2000/svg" xmlns:xlink="http://www.w3.org/1999/xlink">
    <title>Icone Quai 10</title>
    <g id="Page-1">
        <path fill="#fff" opacity=".15" d="M113.095,1.13686838e-13 C81.465,1.13686838e-13 52.565,12.971 32.54,33.906 C12.06,54.841 0,82.603 0,113.778 C0,144.953 12.06,173.17 32.54,193.65 C52.565,214.13 81.464,227.556 113.095,227.556 C143.36,227.556 172.259,214.358 191.829,193.65 C212.309,173.17 225.052,144.953 225.052,113.778 C225.052,82.603 212.309,54.614 191.829,33.906 C172.487,12.971 143.36,5.68434189e-14 113.095,5.68434189e-14 L113.095,1.13686838e-13 Z M160.199,163.612 C147.683,176.583 131.072,184.32 113.095,184.32 C93.98,184.32 77.369,176.583 64.853,163.612 C52.337,151.324 44.601,133.347 44.601,113.777 C44.601,94.207 52.338,76.23 64.853,63.715 C77.369,50.744 93.98,43.463 113.095,43.463 C131.072,43.463 147.683,50.972 160.199,63.715 C172.487,76.231 180.451,94.435 180.451,113.777 C180.451,133.347 172.487,151.324 160.199,163.612 Z" id="Path-Copy-3"></path>
        <path fill="#fff" opacity=".15" d="M122.197,253.952 L120.832,252.587 C117.191,248.946 112.64,247.126 107.861,247.126 L107.406,247.126 C102.627,247.126 97.849,248.946 94.435,252.587 C93.752,253.27 93.07,253.952 92.615,254.863 L78.962,268.516 C75.321,272.157 73.273,276.936 73.273,281.714 C73.273,286.492 75.321,291.044 78.734,294.685 C82.147,298.098 86.926,300.146 91.705,300.146 C96.484,300.146 101.262,298.098 104.903,294.457 L107.634,291.726 L136.989,321.081 C140.63,324.722 145.409,326.77 150.187,326.77 C154.965,326.77 159.517,324.722 163.158,321.309 C170.667,313.8 170.44,302.649 162.93,295.14 L122.198,253.952 L122.197,253.952 Z" id="Path-Copy-2"></path>
    </g>
</svg>
