<?xml version="1.0" encoding="utf-8"?>
<svg version="1.1" xmlns="http://www.w3.org/2000/svg" xmlns:xlink="http://www.w3.org/1999/xlink" viewBox="0 0 1000 1000">
	<g>
		<path class="fillcolor1" d="M331.8,258.5c-15.2,0-29.2,6.2-38.9,16.3c-9.8,10.1-15.7,23.5-15.7,38.6c0,15.1,5.9,28.7,15.7,38.6
			c9.7,9.9,23.6,16.3,38.9,16.3c14.6,0,28.6-6.4,37.9-16.3c9.8-9.9,16-23.5,16-38.6c0-15.1-6.2-28.5-16-38.6
			C360.4,264.7,346.4,258.5,331.8,258.5z M353.7,336.5c-5.8,6-13.6,9.6-21.9,9.6c-8.9,0-16.6-3.6-22.4-9.6
			c-5.8-5.7-9.4-14.1-9.4-23.2c0-9,3.6-17.4,9.4-23.3c5.8-6,13.6-9.4,22.4-9.4c8.3,0,16.1,3.5,21.9,9.4c5.7,5.9,9.4,14.2,9.4,23.3
			C363.1,322.4,359.3,330.8,353.7,336.5z"/>
		<path class="fillcolor1" d="M336.6,380.5c-0.2-0.2-0.8-0.8-1.1-1.1c-1.7-1.7-3.9-3.4-6.3-3.4c0,0,0,0-0.1,0c0,0,0,0-0.1,0
			c-2.4,0-4.6,1.7-6.3,3.4c-0.3,0.3-0.6,0.7-0.9,1l-6.6,6.8c-3.7,3.7-3.7,9.5-0.1,13.1c1.7,1.7,3.9,2.7,6.2,2.7
			c2.4,0,4.6-0.9,6.4-2.7l1.4-1.3l14.1,14.1c1.8,1.8,4.1,2.8,6.4,2.8c2.3,0,4.5-0.9,6.2-2.7c3.6-3.6,3.9-9.4,0.3-13L336.6,380.5z"/>
		<path class="fillcolor1" d="M496,259.1c-6.5,0-11,5.1-11,11.6v49.8c0,16.8-8.3,25.4-22.5,25.4S440,337,440,319.8v-49
			c0-6.5-5.5-11.6-12-11.6s-12,5.1-12,11.6v49.6c0,31.1,16.8,46.9,45.2,46.9c28.4,0,45.8-15.7,45.8-47.7v-48.9
			C507,264.2,502.5,259.1,496,259.1z"/>
		<path class="fillcolor1" d="M603.5,267.9c-2.6-5.7-7.1-8.9-13.4-8.9h-1.4c-6.3,0-11,3.1-13.6,8.9l-36.8,83c-0.8,1.7-1.4,3.2-1.4,4.9
			c0,6,4.7,10.8,10.7,10.8c4.8,0,8.8-2.7,10.7-7.2l7.4-17.3h46.5l7.1,16.6c2.1,4.8,5.7,8,11.2,8c6.2,0,11-5,11-11.2
			c0-1.5-0.5-2.9-1.2-4.5L603.5,267.9z M574.3,322l14.6-34.9l14.6,34.9H574.3z"/>
		<path class="fillcolor1" d="M687,259.1c-6.5,0-12,5.1-12,11.6v84.2c0,6.5,5.5,11.6,12,11.6c6.5,0,12-5.1,12-11.6v-84.2
			C699,264.2,693.5,259.1,687,259.1z"/>
	</g>
	<g>
		<path class="fillcolor1" d="M204,448.4c-6.3,0-12,5.1-12,11.5v54.5l-44.3-59.2c-3.2-4.1-6-7.2-11.6-7.2h-2.4c-6.5,0-11.7,5.9-11.7,12.4
			v84.1c0,6.3,4.7,11.5,11,11.5s11-5.1,11-11.5v-56.6l47,60.7c3.2,4.1,7,6.5,12.6,6.5h0.8c6.5,0,11.7-4.6,11.7-11v-84.1
			C216,453.6,210.3,448.4,204,448.4z"/>
		<path class="fillcolor1" d="M334,448.4c-6.5,0-12,5.1-12,11.6v49.8c0,16.8-7.3,25.4-21.5,25.4c-14.2,0-21.5-8.9-21.5-26.1v-49
			c0-6.5-5.5-11.6-12-11.6c-6.5,0-12,5.1-12,11.6v49.6c0,31.1,16.8,46.9,45.2,46.9c28.4,0,45.8-15.7,45.8-47.7v-48.9
			C346,453.6,340.5,448.4,334,448.4z"/>
		<path class="fillcolor1" d="M479.5,448H477c-4.7,0-8,2.3-10.4,6.3l-28.2,46.1l-28.1-46c-2.1-3.5-5.6-6.3-10.6-6.3h-2.6
			c-6.5,0-11.2,5.9-11.2,12.4v84.2c0,6.3,4.1,11.3,10.4,11.3c6.3,0,10.6-5,10.6-11.3V492l20.7,30.9c2.4,3.6,5.8,5.9,10,5.9
			c4.2,0,7.4-2.3,9.8-5.9l20.5-31.4v52.7c0,6.3,5.6,11.6,11.9,11.6c6.5,0,12.1-5.1,12.1-11.6v-83.9C492,453.9,486,448,479.5,448z"/>
		<path class="fillcolor1" d="M571.1,441.9c5.1,0,8.8-0.9,13.1-5l9.4-8.8c1.8-1.7,3-3.3,3-5.4c0-3.5-7.2-6.9-12.8-6.9
			c-3.8,0-6.6,2-8.6,5.1l-8.3,13c-0.8,1.2-1.5,2.7-1.5,4.1C565.4,440.4,567.8,441.9,571.1,441.9z"/>
		<path class="fillcolor1" d="M602.5,535H556v-22h39c5.7,0,10.4-4.7,10.4-10.4c0-5.7-4.7-10.6-10.4-10.6h-39v-22h45.8
			c5.7,0,10.4-4.2,10.4-9.9c0-5.7-4.7-10.1-10.4-10.1h-58.6c-6.5,0-12.2,4.5-12.2,11v82.4c0,6.5,5.7,11.6,12.2,11.6h59.3
			c5.7,0,10.4-4.2,10.4-9.9C612.9,539.3,608.3,535,602.5,535z"/>
		<path class="fillcolor1" d="M696.1,450h-36.7c-6.5,0-10.4,4.5-10.4,11v83.3c0,6.5,4.5,11.6,11,11.6s11-5.1,11-11.6V522h18.6l22.6,28.3
			c2.7,3.5,6.2,5.8,11.5,5.8c5.6,0,11-4.3,11-10.8c0-3.6-1.5-6.1-3.8-9l-16.1-19.6c12.8-5.3,21.2-15.6,21.2-32.2v-0.3
			c0-10-3.2-17.9-9.1-23.8C720,453.4,709.5,450,696.1,450z M712,485.7c0,8.9-6.1,14.3-17.4,14.3H671v-28h23.1
			c11.3,0,17.9,3.4,17.9,13.4V485.7z"/>
		<path class="fillcolor1" d="M823.7,447.5c-32.6,0-56.7,24.6-56.7,54.6v0.3c0,30,23.8,54.3,56.3,54.3c32.6,0,56.7-24.6,56.7-54.6v-0.3
			C880,471.8,856.2,447.5,823.7,447.5z M856,502.5c0,18.1-14.1,32.9-32.8,32.9S790,520.3,790,502.2v-0.3c0-18.1,14.1-32.9,32.8-32.9
			c18.7,0,33.2,15.1,33.2,33.2V502.5z"/>
	</g>
	<g>
		<path class="fillcolor1" d="M387.5,635h-29.6c-6.5,0-11.9,4.8-11.9,11.3v82.4c0,6.5,5.4,11.3,11.9,11.3h29.6
			c33.2,0,56.5-22.7,56.5-52.5v-0.3C444,657.5,420.7,635,387.5,635z M420,687.8c0,18.7-13.5,33.2-32.5,33.2H370v-64h17.5
			c19,0,32.5,11.8,32.5,30.5V687.8z"/>
		<path class="fillcolor1" d="M493,633.8c-6.5,0-12,5.1-12,11.6v84.2c0,6.5,5.5,11.6,12,11.6s12-5.1,12-11.6v-84.2
			C505,638.9,499.5,633.8,493,633.8z"/>
		<path class="fillcolor1" d="M629.2,721.2l-28.4-34.9l26.9-32.9c2.3-2.9,3.5-5.6,3.5-8.9c0-6.6-5.4-10.7-10.6-10.7
			c-5.1,0-8.1,2.3-11.3,6.3l-22.9,30.2l-23.1-30.8c-2.9-3.8-5.7-5.7-10.7-5.7c-6.6,0-11.5,5-11.5,11.5c0,3.3,1.7,6.3,3.5,8.6
			l26.9,32.7l-28.5,35c-2.3,2.9-3.5,5.6-3.5,8.9c0,6.6,5.4,10.7,10.6,10.7c5.1,0,8.1-2.3,11.3-6.3l24.4-31.8l24.7,32.4
			c2.9,3.8,5.7,5.7,10.7,5.7c6.6,0,11.5-5,11.5-11.5C632.7,726.5,631,723.4,629.2,721.2z"/>
	</g>
</svg>
