<svg width="226" height="327" viewBox="0 0 226 327" xmlns="http://www.w3.org/2000/svg"><title>Icone Quai 10</title><g id="Page-1" fill="#fff"><path opacity=".15" d="M113.095 0c-31.63 0-60.53 12.97-80.555 33.906C12.06 54.84 0 82.603 0 113.778c0 31.175 12.06 59.392 32.54 79.872 20.025 20.48 48.924 33.906 80.555 33.906 30.265 0 59.164-13.198 78.734-33.906 20.48-20.48 33.222-48.697 33.222-79.872 0-31.175-12.743-59.164-33.223-79.872C172.486 12.97 143.36 0 113.094 0zM160.2 163.612c-12.517 12.97-29.128 20.708-47.105 20.708-19.115 0-35.726-7.737-48.242-20.708C52.337 151.324 44.6 133.347 44.6 113.777S52.34 76.23 64.854 63.715c12.516-12.97 29.127-20.252 48.242-20.252 17.977 0 34.588 7.51 47.104 20.252 12.287 12.516 20.25 30.72 20.25 50.062 0 19.57-7.963 37.547-20.25 49.835z" id="Path-Copy-3"/><path opacity=".15" d="M122.197 253.952l-1.365-1.365c-3.64-3.64-8.192-5.46-12.97-5.46h-.456c-4.78 0-9.557 1.82-12.97 5.46-.684.683-1.366 1.365-1.82 2.276L78.96 268.516c-3.64 3.64-5.69 8.42-5.69 13.198 0 4.778 2.05 9.33 5.462 12.97 3.413 3.414 8.192 5.462 12.97 5.462 4.78 0 9.558-2.048 13.2-5.69l2.73-2.73 29.355 29.355c3.64 3.642 8.42 5.69 13.197 5.69 4.778 0 9.33-2.048 12.97-5.46 7.51-7.51 7.283-18.66-.227-26.17l-40.732-41.188z" id="Path-Copy-2"/></g></svg>