<svg width="226" height="327" viewBox="0 0 226 327" xmlns="http://www.w3.org/2000/svg"><title>Icone Quai 10</title><path opacity=".15" d="M113.095 0c-31.63 0-60.53 12.971-80.555 33.906C12.06 54.841 0 82.603 0 113.778c0 31.175 12.06 59.392 32.54 79.872 20.025 20.48 48.924 33.906 80.555 33.906 30.265 0 59.164-13.198 78.734-33.906 20.48-20.48 33.223-48.697 33.223-79.872 0-31.175-12.743-59.164-33.223-79.872C172.487 12.971 143.36 0 113.095 0zm47.104 163.612c-12.516 12.971-29.127 20.708-47.104 20.708-19.115 0-35.726-7.737-48.242-20.708-12.516-12.288-20.252-30.265-20.252-49.835s7.737-37.547 20.252-50.062c12.516-12.971 29.127-20.252 48.242-20.252 17.977 0 34.588 7.509 47.104 20.252 12.288 12.516 20.252 30.72 20.252 50.062 0 19.57-7.964 37.547-20.252 49.835zm-38.002 90.34l-1.365-1.365c-3.641-3.641-8.192-5.461-12.971-5.461h-.455c-4.779 0-9.557 1.82-12.971 5.461-.683.683-1.365 1.365-1.82 2.276l-13.653 13.653c-3.641 3.641-5.689 8.42-5.689 13.198 0 4.778 2.048 9.33 5.461 12.971 3.413 3.413 8.192 5.461 12.971 5.461s9.557-2.048 13.198-5.689l2.731-2.731 29.355 29.355c3.641 3.641 8.42 5.689 13.198 5.689 4.778 0 9.33-2.048 12.971-5.461 7.509-7.509 7.282-18.66-.228-26.169l-40.732-41.188h-.001z" fill="#fff"/></svg>