<svg xmlns="http://www.w3.org/2000/svg" viewBox="0 0 1000 1000"><path class="fillcolor1" d="M331.8 258.5c-15.2 0-29.2 6.2-38.9 16.3-9.8 10.1-15.7 23.5-15.7 38.6 0 15.1 5.9 28.7 15.7 38.6 9.7 9.9 23.6 16.3 38.9 16.3 14.6 0 28.6-6.4 37.9-16.3 9.8-9.9 16-23.5 16-38.6 0-15.1-6.2-28.5-16-38.6-9.3-10.1-23.3-16.3-37.9-16.3zm21.9 78c-5.8 6-13.6 9.6-21.9 9.6-8.9 0-16.6-3.6-22.4-9.6-5.8-5.7-9.4-14.1-9.4-23.2 0-9 3.6-17.4 9.4-23.3 5.8-6 13.6-9.4 22.4-9.4 8.3 0 16.1 3.5 21.9 9.4 5.7 5.9 9.4 14.2 9.4 23.3 0 9.1-3.8 17.5-9.4 23.2zM336.6 380.5l-1.1-1.1c-1.7-1.7-3.9-3.4-6.3-3.4h-.1-.1c-2.4 0-4.6 1.7-6.3 3.4-.3.3-.6.7-.9 1l-6.6 6.8c-3.7 3.7-3.7 9.5-.1 13.1 1.7 1.7 3.9 2.7 6.2 2.7 2.4 0 4.6-.9 6.4-2.7l1.4-1.3 14.1 14.1c1.8 1.8 4.1 2.8 6.4 2.8 2.3 0 4.5-.9 6.2-2.7 3.6-3.6 3.9-9.4.3-13l-19.5-19.7zM496 259.1c-6.5 0-11 5.1-11 11.6v49.8c0 16.8-8.3 25.4-22.5 25.4S440 337 440 319.8v-49c0-6.5-5.5-11.6-12-11.6s-12 5.1-12 11.6v49.6c0 31.1 16.8 46.9 45.2 46.9 28.4 0 45.8-15.7 45.8-47.7v-48.9c0-6.5-4.5-11.6-11-11.6zM603.5 267.9c-2.6-5.7-7.1-8.9-13.4-8.9h-1.4c-6.3 0-11 3.1-13.6 8.9l-36.8 83c-.8 1.7-1.4 3.2-1.4 4.9 0 6 4.7 10.8 10.7 10.8 4.8 0 8.8-2.7 10.7-7.2l7.4-17.3h46.5l7.1 16.6c2.1 4.8 5.7 8 11.2 8 6.2 0 11-5 11-11.2 0-1.5-.5-2.9-1.2-4.5l-36.8-83.1zM574.3 322l14.6-34.9 14.6 34.9h-29.2zM687 259.1c-6.5 0-12 5.1-12 11.6v84.2c0 6.5 5.5 11.6 12 11.6s12-5.1 12-11.6v-84.2c0-6.5-5.5-11.6-12-11.6z"/><g><path class="fillcolor1" d="M204 448.4c-6.3 0-12 5.1-12 11.5v54.5l-44.3-59.2c-3.2-4.1-6-7.2-11.6-7.2h-2.4c-6.5 0-11.7 5.9-11.7 12.4v84.1c0 6.3 4.7 11.5 11 11.5s11-5.1 11-11.5v-56.6l47 60.7c3.2 4.1 7 6.5 12.6 6.5h.8c6.5 0 11.7-4.6 11.7-11V460c-.1-6.4-5.8-11.6-12.1-11.6zM334 448.4c-6.5 0-12 5.1-12 11.6v49.8c0 16.8-7.3 25.4-21.5 25.4s-21.5-8.9-21.5-26.1v-49c0-6.5-5.5-11.6-12-11.6s-12 5.1-12 11.6v49.6c0 31.1 16.8 46.9 45.2 46.9 28.4 0 45.8-15.7 45.8-47.7V460c0-6.4-5.5-11.6-12-11.6zM479.5 448H477c-4.7 0-8 2.3-10.4 6.3l-28.2 46.1-28.1-46c-2.1-3.5-5.6-6.3-10.6-6.3h-2.6c-6.5 0-11.2 5.9-11.2 12.4v84.2c0 6.3 4.1 11.3 10.4 11.3 6.3 0 10.6-5 10.6-11.3V492l20.7 30.9c2.4 3.6 5.8 5.9 10 5.9s7.4-2.3 9.8-5.9l20.5-31.4v52.7c0 6.3 5.6 11.6 11.9 11.6 6.5 0 12.1-5.1 12.1-11.6v-83.9c.1-6.4-5.9-12.3-12.4-12.3zM571.1 441.9c5.1 0 8.8-.9 13.1-5l9.4-8.8c1.8-1.7 3-3.3 3-5.4 0-3.5-7.2-6.9-12.8-6.9-3.8 0-6.6 2-8.6 5.1l-8.3 13c-.8 1.2-1.5 2.7-1.5 4.1 0 2.4 2.4 3.9 5.7 3.9zM602.5 535H556v-22h39c5.7 0 10.4-4.7 10.4-10.4S600.7 492 595 492h-39v-22h45.8c5.7 0 10.4-4.2 10.4-9.9s-4.7-10.1-10.4-10.1h-58.6c-6.5 0-12.2 4.5-12.2 11v82.4c0 6.5 5.7 11.6 12.2 11.6h59.3c5.7 0 10.4-4.2 10.4-9.9 0-5.8-4.6-10.1-10.4-10.1zM696.1 450h-36.7c-6.5 0-10.4 4.5-10.4 11v83.3c0 6.5 4.5 11.6 11 11.6s11-5.1 11-11.6V522h18.6l22.6 28.3c2.7 3.5 6.2 5.8 11.5 5.8 5.6 0 11-4.3 11-10.8 0-3.6-1.5-6.1-3.8-9l-16.1-19.6c12.8-5.3 21.2-15.6 21.2-32.2v-.3c0-10-3.2-17.9-9.1-23.8-6.9-7-17.4-10.4-30.8-10.4zm15.9 35.7c0 8.9-6.1 14.3-17.4 14.3H671v-28h23.1c11.3 0 17.9 3.4 17.9 13.4v.3zM823.7 447.5c-32.6 0-56.7 24.6-56.7 54.6v.3c0 30 23.8 54.3 56.3 54.3 32.6 0 56.7-24.6 56.7-54.6v-.3c0-30-23.8-54.3-56.3-54.3zm32.3 55c0 18.1-14.1 32.9-32.8 32.9S790 520.3 790 502.2v-.3c0-18.1 14.1-32.9 32.8-32.9 18.7 0 33.2 15.1 33.2 33.2v.3z"/></g><g><path class="fillcolor1" d="M387.5 635h-29.6c-6.5 0-11.9 4.8-11.9 11.3v82.4c0 6.5 5.4 11.3 11.9 11.3h29.6c33.2 0 56.5-22.7 56.5-52.5v-.3c0-29.7-23.3-52.2-56.5-52.2zm32.5 52.8c0 18.7-13.5 33.2-32.5 33.2H370v-64h17.5c19 0 32.5 11.8 32.5 30.5v.3zM493 633.8c-6.5 0-12 5.1-12 11.6v84.2c0 6.5 5.5 11.6 12 11.6s12-5.1 12-11.6v-84.2c0-6.5-5.5-11.6-12-11.6zM629.2 721.2l-28.4-34.9 26.9-32.9c2.3-2.9 3.5-5.6 3.5-8.9 0-6.6-5.4-10.7-10.6-10.7-5.1 0-8.1 2.3-11.3 6.3l-22.9 30.2-23.1-30.8c-2.9-3.8-5.7-5.7-10.7-5.7-6.6 0-11.5 5-11.5 11.5 0 3.3 1.7 6.3 3.5 8.6l26.9 32.7-28.5 35c-2.3 2.9-3.5 5.6-3.5 8.9 0 6.6 5.4 10.7 10.6 10.7 5.1 0 8.1-2.3 11.3-6.3l24.4-31.8 24.7 32.4c2.9 3.8 5.7 5.7 10.7 5.7 6.6 0 11.5-5 11.5-11.5 0-3.2-1.7-6.3-3.5-8.5z"/></g></svg>